HIERARCHY
ROOT hip
{
  OFFSET 0 0 0
  CHANNELS 6 Xposition Yposition Zposition Zrotation Yrotation Xrotation
  JOINT abdomen
  {
    OFFSET 0 20.6881 -0.73152
    CHANNELS 3 Zrotation Xrotation Yrotation
    JOINT chest
    {
      OFFSET 0 11.7043 -0.48768
      CHANNELS 3 Zrotation Xrotation Yrotation
      JOINT neck
      {
        OFFSET 0 22.1894 -2.19456
        CHANNELS 3 Zrotation Xrotation Yrotation
        JOINT head
        {
          OFFSET -0.24384 7.07133 1.2192
          CHANNELS 3 Zrotation Xrotation Yrotation
          JOINT leftEye
          {
            OFFSET 4.14528 8.04674 8.04672
            CHANNELS 3 Zrotation Xrotation Yrotation
            End Site
            {
              OFFSET 1 0 0
            }
          }
          JOINT rightEye
          {
            OFFSET -3.6576 8.04674 8.04672
            CHANNELS 3 Zrotation Xrotation Yrotation
            End Site
            {
              OFFSET 1 0 0
            }
          }
        }
      }
      JOINT rCollar
      {
        OFFSET -2.68224 19.2634 -4.8768
        CHANNELS 3 Zrotation Xrotation Yrotation
        JOINT rShldr
        {
          OFFSET -8.77824 -1.95073 1.46304
          CHANNELS 3 Zrotation Xrotation Yrotation
          JOINT rForeArm
          {
            OFFSET -28.1742 -1.7115 0.48768
            CHANNELS 3 Zrotation Xrotation Yrotation
            JOINT rHand
            {
              OFFSET -22.5879 0.773209 7.07136
              CHANNELS 3 Zrotation Xrotation Yrotation
              JOINT rThumb1
              {
                OFFSET -1.2192 -0.487915 3.41376
                CHANNELS 3 Zrotation Xrotation Yrotation
                JOINT rThumb2
                {
                  OFFSET -3.37035 -0.52449 3.41376
                  CHANNELS 3 Zrotation Xrotation Yrotation
                  End Site
                  {
                    OFFSET -1.78271 -1.18214 1.43049
                  }
                }
              }
              JOINT rIndex1
              {
                OFFSET -7.75947 0.938293 5.60832
                CHANNELS 3 Zrotation Xrotation Yrotation
                JOINT rIndex2
                {
                  OFFSET -2.54057 -0.884171 1.56538
                  CHANNELS 3 Zrotation Xrotation Yrotation
                  End Site
                  {
                    OFFSET -1.62519 -0.234802 1.16502
                  }
                }
              }
              JOINT rMid1
              {
                OFFSET -8.24714 1.18213 3.41376
                CHANNELS 3 Zrotation Xrotation Yrotation
                JOINT rMid2
                {
                  OFFSET -3.10165 -0.590103 1.0647
                  CHANNELS 3 Zrotation Xrotation Yrotation
                  End Site
                  {
                    OFFSET -2.48547 -0.328903 0.83742
                  }
                }
              }
              JOINT rRing1
              {
                OFFSET -8.82822 0.546677 1.51678
                CHANNELS 3 Zrotation Xrotation Yrotation
                JOINT rRing2
                {
                  OFFSET -2.60934 -0.819778 -0.0198488
                  CHANNELS 3 Zrotation Xrotation Yrotation
                  End Site
                  {
                    OFFSET -2.33842 -0.294052 0.168128
                  }
                }
              }
              JOINT rPinky1
              {
                OFFSET -8.27202 -0.0477905 -0.4584
                CHANNELS 3 Zrotation Xrotation Yrotation
                JOINT rPinky2
                {
                  OFFSET -1.82734 -0.647385 -0.700984
                  CHANNELS 3 Zrotation Xrotation Yrotation
                  End Site
                  {
                    OFFSET -1.69225 -0.51767 -0.607171
                  }
                }
              }
            }
          }
        }
      }
      JOINT lCollar
      {
        OFFSET 2.68224 19.2634 -4.8768
        CHANNELS 3 Zrotation Xrotation Yrotation
        JOINT lShldr
        {
          OFFSET 8.77824 -1.95073 1.46304
          CHANNELS 3 Zrotation Xrotation Yrotation
          JOINT lForeArm
          {
            OFFSET 28.1742 -1.7115 0.48768
            CHANNELS 3 Zrotation Xrotation Yrotation
            JOINT lHand
            {
              OFFSET 22.5879 0.773209 7.07136
              CHANNELS 3 Zrotation Xrotation Yrotation
              JOINT lThumb1
              {
                OFFSET 1.2192 -0.487915 3.41376
                CHANNELS 3 Zrotation Xrotation Yrotation
                JOINT lThumb2
                {
                  OFFSET 3.37035 -0.52449 3.41376
                  CHANNELS 3 Zrotation Xrotation Yrotation
                  End Site
                  {
                    OFFSET 1.78271 -1.18214 1.43049
                  }
                }
              }
              JOINT lIndex1
              {
                OFFSET 7.75947 0.938293 5.60832
                CHANNELS 3 Zrotation Xrotation Yrotation
                JOINT lIndex2
                {
                  OFFSET 2.54057 -0.884171 1.56538
                  CHANNELS 3 Zrotation Xrotation Yrotation
                  End Site
                  {
                    OFFSET 1.62519 -0.234802 1.16502
                  }
                }
              }
              JOINT lMid1
              {
                OFFSET 8.24714 1.18213 3.41376
                CHANNELS 3 Zrotation Xrotation Yrotation
                JOINT lMid2
                {
                  OFFSET 3.10165 -0.590103 1.0647
                  CHANNELS 3 Zrotation Xrotation Yrotation
                  End Site
                  {
                    OFFSET 2.48547 -0.328903 0.83742
                  }
                }
              }
              JOINT lRing1
              {
                OFFSET 8.82822 0.546677 1.51678
                CHANNELS 3 Zrotation Xrotation Yrotation
                JOINT lRing2
                {
                  OFFSET 2.60934 -0.819778 -0.0198488
                  CHANNELS 3 Zrotation Xrotation Yrotation
                  End Site
                  {
                    OFFSET 2.33842 -0.294052 0.168128
                  }
                }
              }
              JOINT lPinky1
              {
                OFFSET 8.27202 -0.0477905 -0.4584
                CHANNELS 3 Zrotation Xrotation Yrotation
                JOINT lPinky2
                {
                  OFFSET 1.82734 -0.647385 -0.700984
                  CHANNELS 3 Zrotation Xrotation Yrotation
                  End Site
                  {
                    OFFSET 1.69225 -0.51767 -0.607171
                  }
                }
              }
            }
          }
        }
      }
    }
  }
  JOINT rButtock
  {
    OFFSET -8.77824 4.35084 1.2192
    CHANNELS 3 Zrotation Xrotation Yrotation
    JOINT rThigh
    {
      OFFSET 0 -1.70687 -2.19456
      CHANNELS 3 Zrotation Xrotation Yrotation
      JOINT rShin
      {
        OFFSET 0 -36.8199 0.73152
        CHANNELS 3 Zrotation Xrotation Yrotation
        JOINT rFoot
        {
          OFFSET 0.73152 -45.1104 -5.12064
          CHANNELS 3 Zrotation Xrotation Yrotation
          End Site
          {
            OFFSET -1.1221 -3.69964 12.103
          }
        }
      }
    }
  }
  JOINT lButtock
  {
    OFFSET 8.77824 4.35084 1.2192
    CHANNELS 3 Zrotation Xrotation Yrotation
    JOINT lThigh
    {
      OFFSET 0 -1.70687 -2.19456
      CHANNELS 3 Zrotation Xrotation Yrotation
      JOINT lShin
      {
        OFFSET 0 -36.8199 0.73152
        CHANNELS 3 Zrotation Xrotation Yrotation
        JOINT lFoot
        {
          OFFSET -0.73152 -45.1104 -5.12064
          CHANNELS 3 Zrotation Xrotation Yrotation
          End Site
          {
            OFFSET 1.1221 -3.69964 12.103
          }
        }
      }
    }
  }
}
MOTION
Frames:	5
Frame Time:	0.00833333
54.1376 73.4304 192.828 178.998 -3.1628 -140.75 -4.01737 -14.5996 -1.33385 2.46443 6.69849 -0.543244 -0.623223 14.3637 0.212442 8.26066 -63.6582 -0.254929 -0.0 0.0 0.0 -0.0 0.0 0.0 2.26167e-14 -2.47413e-13 -8.30718e-14 80.4436 2.67405 -6.17991 -10.1169 -4.21362 18.0196 -0.122992 9.98364 1.41747 -8.97608e-10 -1.32458e-09 4.69004e-09 -1.51266e-09 -2.26866e-09 8.11122e-09 -8.97602e-10 -1.32458e-09 4.69004e-09 7.73091 5.47488 0.417314 -8.97611e-10 -1.32458e-09 4.69004e-09 2.90554 0.965183 0.102902 -8.97598e-10 -1.32458e-09 4.69003e-09 10.2786 0.731801 0.0259123 -8.97605e-10 -1.32458e-09 4.69003e-09 2.22167 -0.733487 -0.20892 2.23318e-14 -2.47413e-13 -8.32966e-14 -70.8674 18.869 -2.63461 8.41821 -3.2379 -14.8617 0.146604 10.9702 -1.56047 2.82398e-09 -6.7414e-10 -4.64442e-09 4.83552e-09 -1.14774e-09 -8.04903e-09 2.82397e-09 -6.74137e-10 -4.6444e-09 -7.73091 5.47488 -0.417314 2.82398e-09 -6.74142e-10 -4.64441e-09 -2.90554 0.965183 -0.102902 2.82398e-09 -6.74142e-10 -4.64442e-09 -10.2786 0.731801 -0.0259123 2.82399e-09 -6.74141e-10 -4.64442e-09 -2.22167 -0.733487 0.20892 -2.03217e-16 0.0 -3.88251e-19 12.0176 -69.0692 13.7599 -0.5994 52.6306 1.51197 -7.40886 -31.3458 -11.6742 2.03217e-16 0.0 3.88251e-19 -16.3835 -69.7413 -21.6155 0.804933 54.5147 -1.07848 -2.25961 -20.5872 -6.07168
54.1382 72.9426 192.571 178.998 -2.9973 -140.971 -4.18219 -14.0449 -1.38641 2.46727 6.54041 -0.545126 -0.590241 14.3007 0.20299 8.16026 -63.6845 -0.368681 -0.0 0.0 0.0 -0.0 0.0 0.0 3.83127e-14 -2.2582e-13 -1.12363e-13 80.4354 2.60501 -5.70415 -10.0049 -4.14439 17.8108 -0.134717 10.4075 1.47914 -9.849e-10 -1.53426e-09 3.91056e-09 -1.66792e-09 -2.63378e-09 6.76415e-09 -9.84894e-10 -1.53426e-09 3.91057e-09 7.73091 5.47488 0.417314 -9.84903e-10 -1.53426e-09 3.91057e-09 2.90554 0.965183 0.102902 -9.8489e-10 -1.53426e-09 3.91056e-09 10.2786 0.731801 0.0259123 -9.84896e-10 -1.53426e-09 3.91057e-09 2.22167 -0.733487 -0.20892 3.80231e-14 -2.2582e-13 -1.12612e-13 -70.9216 18.0154 -2.97882 8.14709 -3.08914 -14.3697 0.176804 11.897 -1.69672 2.51012e-09 -4.83489e-10 -4.25593e-09 4.29424e-09 -8.18516e-10 -7.37579e-09 2.51011e-09 -4.83486e-10 -4.25592e-09 -7.73091 5.47488 -0.417314 2.51012e-09 -4.83491e-10 -4.25592e-09 -2.90554 0.965183 -0.102902 2.51012e-09 -4.83492e-10 -4.25593e-09 -10.2786 0.731801 -0.0259123 2.51012e-09 -4.8349e-10 -4.25594e-09 -2.22167 -0.733487 0.20892 -2.03217e-16 0.0 -3.88251e-19 11.85 -69.3195 13.5858 -0.64155 53.7591 1.56655 -7.43662 -31.8679 -11.5652 2.03217e-16 0.0 3.88251e-19 -16.7732 -69.9624 -21.564 0.861918 55.6654 -1.12043 -2.59892 -20.8274 -6.76843
54.1308 72.4589 192.412 178.968 -2.8856 -140.955 -4.32342 -13.6996 -1.2632 2.43363 6.48844 -0.499314 -0.54571 14.2855 0.154885 8.0014 -63.8565 -0.6229 -0.0 0.0 0.0 -0.0 0.0 0.0 4.29977e-14 -1.84223e-13 -9.91369e-14 80.517 2.71683 -5.22232 -9.97428 -4.12442 17.7554 -0.139825 10.553 1.5005 -7.39139e-10 -1.2592e-09 2.72113e-09 -1.25309e-09 -2.16358e-09 4.70612e-09 -7.39135e-10 -1.2592e-09 2.72113e-09 7.73091 5.47488 0.417314 -7.39142e-10 -1.2592e-09 2.72113e-09 2.90554 0.965183 0.102902 -7.39129e-10 -1.2592e-09 2.72113e-09 10.2786 0.731801 0.0259123 -7.39136e-10 -1.2592e-09 2.72113e-09 2.22167 -0.733487 -0.20892 4.27652e-14 -1.84225e-13 -9.94036e-14 -70.8926 17.7021 -3.40328 7.99765 -3.00802 -14.0998 0.194113 12.3978 -1.77074 1.87111e-09 -3.06953e-10 -3.15497e-09 3.20037e-09 -5.17363e-10 -5.46744e-09 1.8711e-09 -3.06951e-10 -3.15496e-09 -7.73091 5.47488 -0.417314 1.87111e-09 -3.06954e-10 -3.15497e-09 -2.90554 0.965183 -0.102902 1.87111e-09 -3.06956e-10 -3.15498e-09 -10.2786 0.731801 -0.0259123 1.87112e-09 -3.06954e-10 -3.15499e-09 -2.22167 -0.733487 0.20892 -2.03217e-16 0.0 -3.88251e-19 12.0417 -69.6966 13.7785 -0.686162 54.9083 1.62993 -7.5881 -32.3023 -11.676 2.03217e-16 0.0 3.88251e-19 -17.1241 -70.3273 -21.5043 0.923868 56.8394 -1.17097 -2.85236 -21.0656 -7.26036
54.1173 71.9945 192.146 178.914 -2.7933 -141.21 -4.45734 -13.4765 -1.03039 2.37949 6.50367 -0.423557 -0.497132 14.3108 0.0795498 7.80463 -64.127 -0.97327 -0.0 0.0 0.0 -0.0 0.0 0.0 4.07311e-14 -1.16089e-13 -5.80886e-14 80.6507 2.9714 -4.7365 -10.0044 -4.14167 17.8135 -0.139153 10.4918 1.49175 -2.5904e-10 -6.34188e-10 1.0526e-09 -4.38161e-10 -1.0909e-09 1.81841e-09 -2.59038e-10 -6.34186e-10 1.0526e-09 7.73091 5.47488 0.417314 -2.59043e-10 -6.34185e-10 1.0526e-09 2.90554 0.965183 0.102902 -2.5903e-10 -6.34185e-10 1.0526e-09 10.2786 0.731801 0.0259123 -2.59038e-10 -6.34184e-10 1.05261e-09 2.22167 -0.733487 -0.20892 4.05993e-14 -1.16092e-13 -5.83712e-14 -70.8107 17.7335 -3.87995 7.93055 -2.97309 -13.9771 0.201782 12.6417 -1.80669 9.13976e-10 -9.56067e-11 -1.4134e-09 1.56398e-09 -1.58824e-10 -2.44885e-09 9.13971e-10 -9.56054e-11 -1.41339e-09 -7.73091 5.47488 -0.417314 9.13977e-10 -9.56071e-11 -1.4134e-09 -2.90554 0.965183 -0.102902 9.13979e-10 -9.56092e-11 -1.4134e-09 -10.2786 0.731801 -0.0259123 9.1398e-10 -9.56058e-11 -1.41341e-09 -2.22167 -0.733487 0.20892 -2.03217e-16 0.0 -3.88251e-19 12.4444 -70.109 14.1923 -0.733474 56.0565 1.69981 -7.82108 -32.6833 -11.926 2.03217e-16 0.0 3.88251e-19 -17.4353 -70.7394 -21.4181 0.990852 58.0166 -1.22857 -3.04783 -21.303 -7.61449
54.0936 71.5164 191.927 178.854 -2.5324 -141.221 -4.59004 -13.304 -0.806782 2.31606 6.524 -0.35093 -0.468798 14.3789 0.0109178 7.67951 -64.394 -1.25245 -0.0 0.0 0.0 -0.0 0.0 0.0 3.38341e-14 -4.07985e-14 -1.39623e-14 80.8029 3.51613 -4.28438 -10.0948 -4.19705 17.9826 -0.131578 10.2112 1.45093 2.73564e-10 6.22871e-11 -6.67959e-10 4.6724e-10 1.05229e-10 -1.1594e-09 2.73565e-10 6.229e-11 -6.6796e-10 7.73091 5.47488 0.417314 2.73561e-10 6.22904e-11 -6.67953e-10 2.90554 0.965183 0.102902 2.73575e-10 6.22906e-11 -6.67958e-10 10.2786 0.731801 0.0259123 2.73565e-10 6.22907e-11 -6.6795e-10 2.22167 -0.733487 -0.20892 3.38078e-14 -4.08025e-14 -1.42562e-14 -70.7214 17.9574 -4.30754 7.91805 -2.96799 -13.9523 0.204435 12.7563 -1.82342 -1.13513e-10 1.1273e-10 4.25571e-10 -1.92633e-10 1.94033e-10 7.38811e-10 -1.13516e-10 1.12729e-10 4.25584e-10 -7.73091 5.47488 -0.417314 -1.13511e-10 1.1273e-10 4.25572e-10 -2.90554 0.965183 -0.102902 -1.13508e-10 1.12727e-10 4.25577e-10 -10.2786 0.731801 -0.0259123 -1.13509e-10 1.12732e-10 4.2556e-10 -2.22167 -0.733487 0.20892 -2.03217e-16 0.0 -3.88251e-19 12.9238 -70.4414 14.7095 -0.78295 57.1535 1.77053 -8.05235 -33.043 -12.176 2.03217e-16 0.0 3.88251e-19 -17.7026 -71.0748 -21.318 1.0601 59.1413 -1.28889 -3.22092 -21.5441 -7.91202
